<svg xmlns="http://www.w3.org/2000/svg" width="22.04" height="17.521" viewBox="0 0 22.04 17.521">
  <path id="Path_2160" data-name="Path 2160" d="M18.731,3.309a.861.861,0,0,0-1.094-.1c-1.288.878-7.75,5.293-8.444,5.988a2.583,2.583,0,0,0,3.653,3.653c.694-.694,5.11-7.156,5.988-8.444A.861.861,0,0,0,18.731,3.309Zm-7.1,8.32a.861.861,0,0,1-1.217-1.217c.27-.266,2.1-1.575,4.362-3.144C13.2,9.525,11.9,11.359,11.629,11.629ZM22.04,11.02a10.98,10.98,0,0,1-1.867,6.118.861.861,0,0,1-1.086.3l-1.808-.861a.861.861,0,1,1,.74-1.555l1.11.528A9.269,9.269,0,0,0,19.5,7.2a.861.861,0,1,1,1.569-.709A10.938,10.938,0,0,1,22.04,11.02Zm-16.918,4.4a.861.861,0,0,1-.4,1.151l-1.765.861a.86.86,0,0,1-1.093-.3A11.017,11.017,0,0,1,15.55.971a.861.861,0,0,1-.709,1.569,9.19,9.19,0,0,0-2.96-.78v1.3a.861.861,0,1,1-1.722,0V1.761A9.31,9.31,0,0,0,3.087,6.174l1.2.577A.861.861,0,1,1,3.544,8.3L2.327,7.719a9.257,9.257,0,0,0,.581,7.824l1.063-.518A.861.861,0,0,1,5.122,15.421Z" fill="#ea2429"/>
</svg>
