<svg xmlns="http://www.w3.org/2000/svg" width="24" height="20" viewBox="0 0 24 20">
  <path id="Path_11564" data-name="Path 11564" d="M22.76,65.254H20v-7.66a2.069,2.069,0,0,0-2-2.128H6a2.069,2.069,0,0,0-2,2.128v2.553H1.806A1.868,1.868,0,0,0,0,62.069V73.546a1.868,1.868,0,0,0,1.806,1.921H8.194A1.814,1.814,0,0,0,9.888,74.19H16.8a.413.413,0,0,0,.4-.426v-.851A1.24,1.24,0,0,0,16,71.637H14.8v-1.7H18v4.213a1.281,1.281,0,0,0,1.24,1.319h3.52A1.281,1.281,0,0,0,24,74.148V66.573A1.281,1.281,0,0,0,22.76,65.254ZM9.2,73.546a1.04,1.04,0,0,1-1.006,1.07H1.806A1.04,1.04,0,0,1,.8,73.546v-.207H9.2v.207Zm0-1.058H.8V63.127H9.2Zm0-10.213H.8v-.207A1.04,1.04,0,0,1,1.806,61H8.194A1.04,1.04,0,0,1,9.2,62.069v.207ZM16,72.488a.413.413,0,0,1,.4.426v.426H10v-.851Zm-6-.851v-1.7h4v1.7Zm8-2.553H10V67.807h8Zm0-2.511v.383H10V62.069a1.868,1.868,0,0,0-1.806-1.921H4.8V57.595A1.24,1.24,0,0,1,6,56.318H18a1.24,1.24,0,0,1,1.2,1.277v7.664A1.284,1.284,0,0,0,18,66.573Zm5.2,7.574a.455.455,0,0,1-.44.468H19.24a.455.455,0,0,1-.44-.468v-.383h4.4Zm0-1.234H18.8V67.807h4.4Zm0-5.957H18.8v-.383a.455.455,0,0,1,.44-.468h3.52a.455.455,0,0,1,.44.468Z" transform="translate(0 -55.467)" fill="#494849"/>
</svg>
