<svg xmlns="http://www.w3.org/2000/svg" width="12.998" height="20.37" viewBox="0 0 12.998 20.37">
  <g id="noun-nurse-2937014" transform="translate(-179.992 -14)">
    <path id="Path_11712" data-name="Path 11712" d="M192.977,32.033l-.365-3.131a4.7,4.7,0,0,0-3.517-3.967,4.415,4.415,0,0,0,1.372-5.575l.686-3.452a.5.5,0,0,0-.172-.493A7.217,7.217,0,0,0,186.5,14a7.1,7.1,0,0,0-4.481,1.437.471.471,0,0,0-.172.493l.686,3.452a4.387,4.387,0,0,0,1.372,5.554A4.647,4.647,0,0,0,180.39,28.9L180,32.033a1.657,1.657,0,0,0,1.308,1.823,26.417,26.417,0,0,0,10.378,0,1.646,1.646,0,0,0,1.286-1.823ZM186.5,15.008a6.213,6.213,0,0,1,3.6,1.029l-.536,2.7a9.123,9.123,0,0,0-6.133,0l-.536-2.7A6.213,6.213,0,0,1,186.5,15.008Zm-3.431,6.347a3.43,3.43,0,0,1,.386-1.544,8.088,8.088,0,0,1,6.09,0,3.419,3.419,0,1,1-6.476,1.544Zm8.405,11.536a26,26,0,0,1-9.971,0,.684.684,0,0,1-.515-.729l.386-3.131a3.681,3.681,0,0,1,3.645-3.238h2.916a3.665,3.665,0,0,1,3.645,3.238l.386,3.131a.615.615,0,0,1-.493.729Z" transform="translate(0)" fill="#494849"/>
    <path id="Path_11713" data-name="Path 11713" d="M322.859,55.908h.429a.138.138,0,0,0,.129-.129v-.6h.6a.138.138,0,0,0,.129-.129v-.429a.138.138,0,0,0-.129-.129h-.6v-.6a.138.138,0,0,0-.129-.129h-.429a.138.138,0,0,0-.129.129v.6h-.6a.138.138,0,0,0-.129.129v.429a.138.138,0,0,0,.129.129h.6v.6A.124.124,0,0,0,322.859,55.908Z" transform="translate(-136.572 -38.241)" fill="#494849"/>
  </g>
</svg>
