<svg xmlns="http://www.w3.org/2000/svg" width="23.918" height="15.83" viewBox="0 0 23.918 15.83">
  <g id="Group_4415" data-name="Group 4415" transform="translate(-46 -208.6)">
    <path id="Path_377" data-name="Path 377" d="M170.629,543.9a6.648,6.648,0,0,0-3.329,6.065,1,1,0,0,0,.783.779.567.567,0,0,0,.566-.566,5.558,5.558,0,0,1,3.034-5.243.617.617,0,0,0-.149-.666,1.5,1.5,0,0,0-.905-.369Z" transform="translate(-117.461 -326.313)" fill="#494849"/>
    <path id="Path_378" data-name="Path 378" d="M311.88,180.54a4.84,4.84,0,1,0-8.325,3.351l1.042.82a4.813,4.813,0,0,0,4.74.088c.017,0,.032.012.049.017l.078-.081.959-.705c-.007,0-.017-.007-.024-.012a4.822,4.822,0,0,0,1.481-3.478Zm-4.84,3.322a3.321,3.321,0,1,1,3.322-3.319,3.325,3.325,0,0,1-3.322,3.319Z" transform="translate(-249.068 32.9)" fill="#494849"/>
    <path id="Path_379" data-name="Path 379" d="M639.329,551.575a1.192,1.192,0,0,0-.893.271.589.589,0,0,0-.146.644,5.37,5.37,0,0,1,2.98,5.077.551.551,0,0,0,.556.547c.307,0,.774-.366.774-.669a6.414,6.414,0,0,0-3.271-5.87Z" transform="translate(-576.915 -333.795)" fill="#494849"/>
    <path id="Path_380" data-name="Path 380" d="M12.565,476.378A5.119,5.119,0,0,0,10,481.052c0,.242.447.539.688.539a.436.436,0,0,0,.437-.437,4.288,4.288,0,0,1,2.338-4.042.475.475,0,0,0-.115-.513,1.127,1.127,0,0,0-.783-.222Z" transform="translate(36 -260.436)" fill="#494849"/>
    <path id="Path_381" data-name="Path 381" d="M117.629,192.7a3.725,3.725,0,0,0-2.685,6.312l.8.632a3.707,3.707,0,0,0,2.917.369,6.715,6.715,0,0,1-.552-1,2.825,2.825,0,0,1-.539.051,2.64,2.64,0,0,1-.037-5.277,2.8,2.8,0,0,1,1.291.315,6.561,6.561,0,0,1,.8-.825,3.754,3.754,0,0,0-2-.578Z" transform="translate(-65.364 16.315)" fill="#494849"/>
    <path id="Path_382" data-name="Path 382" d="M851.3,475.229a5.12,5.12,0,0,1,2.538,4.657c0,.239-.391.464-.63.464a.437.437,0,0,1-.432-.434,4.281,4.281,0,0,0-2.314-4.027.482.482,0,0,1,.112-.513.835.835,0,0,1,.725-.146Z" transform="translate(-783.924 -259.292)" fill="#494849"/>
    <path id="Path_383" data-name="Path 383" d="M657.074,193.6a3.72,3.72,0,0,1,2.658,6.29l-.791.63a3.625,3.625,0,0,1-1.86.515,3.723,3.723,0,0,1-1.023-.144,6.4,6.4,0,0,0,.52-.952,2.751,2.751,0,0,0,.532.051,2.426,2.426,0,0,0,2.575-2.48,2.5,2.5,0,0,0-2.526-2.812,2.752,2.752,0,0,0-1.276.315,6.866,6.866,0,0,0-.783-.835,3.656,3.656,0,0,1,1.974-.578Z" transform="translate(-593.355 15.437)" fill="#494849"/>
  </g>
</svg>
