<svg xmlns="http://www.w3.org/2000/svg" width="22.276" height="17.22" viewBox="0 0 22.276 17.22">
  <g id="noun-patient-monitor-3992178" transform="translate(-116.137 -99.215)">
    <path id="Path_11753" data-name="Path 11753" d="M136.247,99.215H118.3a2.168,2.168,0,0,0-2.166,2.166V114.27a2.168,2.168,0,0,0,2.166,2.166h17.944a2.168,2.168,0,0,0,2.166-2.166V101.381a2.168,2.168,0,0,0-2.166-2.166ZM137.9,114.27a1.655,1.655,0,0,1-1.654,1.654H118.3a1.655,1.655,0,0,1-1.654-1.654V101.381a1.655,1.655,0,0,1,1.654-1.654h17.944a1.655,1.655,0,0,1,1.654,1.654Z" transform="translate(0 0)" fill="#494849"/>
    <path id="Path_11754" data-name="Path 11754" d="M494.615,173.05a1.259,1.259,0,1,0,1.259,1.259A1.26,1.26,0,0,0,494.615,173.05Zm0,2.006a.747.747,0,1,1,.747-.747A.748.748,0,0,1,494.615,175.056Z" transform="translate(-359.253 -70.318)" fill="#494849"/>
    <path id="Path_11755" data-name="Path 11755" d="M495.123,332.64h-1a.758.758,0,0,0-.757.757v.725a.758.758,0,0,0,.757.757h1a.758.758,0,0,0,.757-.757V333.4A.758.758,0,0,0,495.123,332.64Zm.245,1.483a.246.246,0,0,1-.245.245h-1a.246.246,0,0,1-.245-.245V333.4a.246.246,0,0,1,.245-.245h1a.246.246,0,0,1,.245.245Z" transform="translate(-359.26 -222.308)" fill="#494849"/>
    <path id="Path_11756" data-name="Path 11756" d="M495.123,254.24h-1a.758.758,0,0,0-.757.757v.725a.758.758,0,0,0,.757.757h1a.758.758,0,0,0,.757-.757V255A.758.758,0,0,0,495.123,254.24Zm.245,1.483a.246.246,0,0,1-.245.245h-1a.246.246,0,0,1-.245-.245V255a.246.246,0,0,1,.245-.245h1a.246.246,0,0,1,.245.245Z" transform="translate(-359.26 -147.642)" fill="#494849"/>
    <path id="Path_11757" data-name="Path 11757" d="M350.46,197.071a.257.257,0,0,0,.356,0l1.339-1.309a.962.962,0,0,0-1.33-1.391l-.007.007-.189.194-.182-.174a.962.962,0,0,0-1.33,1.391Zm-1-2.288a.45.45,0,0,1,.637-.016l.365.349a.256.256,0,0,0,.36-.007l.362-.373a.45.45,0,0,1,.617.656l-1.164,1.138-1.163-1.112a.451.451,0,0,1-.015-.635Z" transform="translate(-221.603 -90.368)" fill="#494849"/>
    <path id="Path_11758" data-name="Path 11758" d="M170.564,136.85H157.613a1.143,1.143,0,0,0-1.142,1.142v11.139a1.143,1.143,0,0,0,1.142,1.142h12.952a1.143,1.143,0,0,0,1.142-1.142V137.992a1.143,1.143,0,0,0-1.142-1.142Zm-12.951.512h12.952a.63.63,0,0,1,.629.629v5.929h-6.166a.256.256,0,0,0-.231.146l-1.115,2.35-1.814-5.4a.256.256,0,0,0-.468-.04l-1.592,2.945h-2.824v-5.929a.63.63,0,0,1,.63-.63Zm12.951,12.4H157.613a.63.63,0,0,1-.629-.629v-4.7h2.976a.256.256,0,0,0,.225-.135l1.384-2.561,1.829,5.444a.256.256,0,0,0,.228.174h.015a.256.256,0,0,0,.231-.146l1.318-2.777h6v4.7a.63.63,0,0,1-.63.63Z" transform="translate(-38.413 -35.843)" fill="#494849"/>
  </g>
</svg>
