<svg xmlns="http://www.w3.org/2000/svg" width="17" height="20" viewBox="0 0 17 20">
  <g id="Group_53119" data-name="Group 53119" transform="translate(-50 -346)">
    <path id="Path_11572" data-name="Path 11572" d="M216.858,32.853h.534a.709.709,0,0,0,.723-.668.707.707,0,0,0,.7-.689v-.508a.707.707,0,0,0-.7-.689.709.709,0,0,0-.723-.668h-.534a.709.709,0,0,0-.723.668.707.707,0,0,0-.7.689V31.5a.707.707,0,0,0,.7.689A.709.709,0,0,0,216.858,32.853Zm-.808-1.357v-.508a.1.1,0,0,1,.106-.1h.265a.324.324,0,0,0,.331-.315V30.32a.1.1,0,0,1,.106-.1h.534a.1.1,0,0,1,.106.1v.252a.324.324,0,0,0,.331.315h.265a.1.1,0,0,1,.106.1V31.5a.1.1,0,0,1-.106.1h-.265a.324.324,0,0,0-.331.315v.252a.1.1,0,0,1-.106.1h-.534a.1.1,0,0,1-.106-.1v-.252a.324.324,0,0,0-.331-.315h-.265A.1.1,0,0,1,216.051,31.5Z" transform="translate(-158.565 317.531)" fill="#494849"/>
    <path id="Path_11573" data-name="Path 11573" d="M63.425,13.161l-3.85-1.374a.249.249,0,0,1-.169-.232v-1.3a3.783,3.783,0,0,0,1.752-2.7,1.389,1.389,0,0,0,1.313-1.354,1.387,1.387,0,0,0-1.283-1.351V2.082a1.518,1.518,0,0,0-.767-1.3L59.671.345A2.571,2.571,0,0,0,58.38,0H56.02a2.571,2.571,0,0,0-1.29.345l-.751.436a1.518,1.518,0,0,0-.767,1.3V4.85a1.39,1.39,0,0,0-1.33,1.355,1.392,1.392,0,0,0,1.36,1.357,3.783,3.783,0,0,0,1.752,2.694v1.3a.249.249,0,0,1-.169.232l-3.85,1.374A3.363,3.363,0,0,0,48.7,16.285v1.808a.309.309,0,0,0,.618,0V16.285a2.771,2.771,0,0,1,1.874-2.574l1.193-.426v1.882a1.18,1.18,0,0,0-.916,1.129,1.227,1.227,0,0,0,2.451,0A1.18,1.18,0,0,0,53,15.167v-2.1L53.179,13l.026.021.765.54a5.642,5.642,0,0,0,6.459,0l.766-.541.025-.02.428.153v1.767a1.444,1.444,0,0,0-1.382,1.408v2.329a.3.3,0,0,0,.309.294h.47a.294.294,0,1,0,0-.588h-.162V16.329a.846.846,0,0,1,.865-.823h.382a.846.846,0,0,1,.865.823v2.035h-.16a.294.294,0,1,0,0,.588H63.3a.3.3,0,0,0,.309-.294V16.329a1.442,1.442,0,0,0-1.347-1.405V13.375l.942.336a2.77,2.77,0,0,1,1.874,2.574V19.4a.013.013,0,0,1-.013.013H49.331a.013.013,0,0,1-.013-.013v-.13a.309.309,0,0,0-.618,0v.13a.617.617,0,0,0,.631.6H65.069a.617.617,0,0,0,.631-.6V16.285A3.363,3.363,0,0,0,63.425,13.161ZM53.3,16.3a.608.608,0,1,1-.608-.578A.594.594,0,0,1,53.3,16.3ZM61.854,6.205a.783.783,0,0,1-.666.757V5.448A.783.783,0,0,1,61.854,6.205Zm-9.355,0a.785.785,0,0,1,.712-.764V6.969A.785.785,0,0,1,52.5,6.205Zm1.33.889V5.438h1.693a.294.294,0,1,0,0-.588H53.829V2.082a.932.932,0,0,1,.471-.8l.751-.436A1.929,1.929,0,0,1,56.02.588H58.38a1.929,1.929,0,0,1,.968.259l.751.436a.932.932,0,0,1,.471.8V4.85H56.758a.294.294,0,1,0,0,.588h3.813V7.094a3.375,3.375,0,0,1-6.742,0Zm6.232,6a5,5,0,0,1-5.723,0l-.472-.334,1.176-.42a.842.842,0,0,0,.57-.782v-.978a4.169,4.169,0,0,0,3.177,0v.978a.842.842,0,0,0,.57.782l1.176.42Z" transform="translate(1.3 346)" fill="#494849"/>
  </g>
</svg>
