<svg xmlns="http://www.w3.org/2000/svg" width="21.109" height="21.109" viewBox="0 0 21.109 21.109">
  <g id="Icon_feather-settings" data-name="Icon feather-settings" transform="translate(-1 -1)">
    <path id="Path_11759" data-name="Path 11759" d="M18.984,16.242A2.742,2.742,0,1,1,16.242,13.5,2.742,2.742,0,0,1,18.984,16.242Z" transform="translate(-4.688 -4.688)" fill="none" stroke="#494849" stroke-linecap="round" stroke-linejoin="round" stroke-width="1"/>
    <path id="Path_11760" data-name="Path 11760" d="M18.318,14.3a1.508,1.508,0,0,0,.3,1.664l.055.055A1.829,1.829,0,1,1,16.088,18.6l-.055-.055a1.52,1.52,0,0,0-2.578,1.079v.155a1.828,1.828,0,0,1-3.656,0V19.7a1.508,1.508,0,0,0-.987-1.38,1.508,1.508,0,0,0-1.664.3l-.055.055a1.829,1.829,0,1,1-2.587-2.587l.055-.055a1.52,1.52,0,0,0-1.079-2.578H3.328a1.828,1.828,0,1,1,0-3.656H3.41a1.508,1.508,0,0,0,1.38-.987,1.508,1.508,0,0,0-.3-1.664l-.055-.055A1.829,1.829,0,1,1,7.021,4.507l.055.055a1.508,1.508,0,0,0,1.664.3h.073a1.508,1.508,0,0,0,.914-1.38V3.328a1.828,1.828,0,1,1,3.656,0V3.41A1.52,1.52,0,0,0,15.96,4.489l.055-.055A1.829,1.829,0,1,1,18.6,7.021l-.055.055a1.508,1.508,0,0,0-.3,1.664v.073a1.508,1.508,0,0,0,1.38.914h.155a1.828,1.828,0,0,1,0,3.656H19.7a1.508,1.508,0,0,0-1.38.914Z" fill="none" stroke="#494849" stroke-linecap="round" stroke-linejoin="round" stroke-width="1"/>
  </g>
</svg>
