<svg xmlns="http://www.w3.org/2000/svg" width="20.584" height="20.584" viewBox="0 0 20.584 20.584">
  <g id="noun-sign-out-503236" transform="translate(-98.871 -28.871)">
    <path id="Path_12061" data-name="Path 12061" d="M102.057,32.057a10.066,10.066,0,1,0,7.106-2.936A9.949,9.949,0,0,0,102.057,32.057Zm16.363,7.106a9.26,9.26,0,1,1-2.712-6.545A9.207,9.207,0,0,1,118.42,39.163Zm-4.8-.4-1.569-1.569.56-.56,2.533,2.533L112.615,41.7l-.56-.56,1.569-1.569H107.3v-.785h6.321ZM106.7,33.582h2.914v.785H106.7a1.325,1.325,0,0,0-1.322,1.322v6.926a1.325,1.325,0,0,0,1.322,1.322h2.869v.785H106.7a2.143,2.143,0,0,1-2.129-2.129V35.711a2.143,2.143,0,0,1,2.129-2.13Z" transform="translate(0)" fill="#494849" stroke="#494849" stroke-width="0.5"/>
  </g>
</svg>
