<svg id="Group_3614" data-name="Group 3614" xmlns="http://www.w3.org/2000/svg" width="12.246" height="17.982" viewBox="0 0 12.246 17.982">
  <g id="Group_3612" data-name="Group 3612" transform="translate(3.499)">
    <path id="Path_11483" data-name="Path 11483" d="M8.373,8.563A4.333,4.333,0,0,1,4,4.282a4.374,4.374,0,0,1,8.747,0A4.333,4.333,0,0,1,8.373,8.563Zm0-7.707a3.466,3.466,0,0,0-3.5,3.425,3.5,3.5,0,0,0,7,0A3.466,3.466,0,0,0,8.373.856Z" transform="translate(-4)" fill="#494849"/>
  </g>
  <g id="Group_3613" data-name="Group 3613" transform="translate(0 10.276)">
    <path id="Path_11484" data-name="Path 11484" d="M8.31,19.707H.437A.433.433,0,0,1,0,19.279V15.853A3.9,3.9,0,0,1,3.936,12h7.872a.428.428,0,1,1,0,.856H3.936a3.033,3.033,0,0,0-3.061,3v3H8.31a.428.428,0,1,1,0,.856Z" transform="translate(0 -12)" fill="#494849"/>
  </g>
</svg>
