<svg id="Group_3615" data-name="Group 3615" xmlns="http://www.w3.org/2000/svg" width="10.496" height="10.276" viewBox="0 0 10.496 10.276">
  <path id="Path_11485" data-name="Path 11485" d="M17.685,22.276h-.875A1.3,1.3,0,0,1,15.5,20.991V18.85H13.312A1.3,1.3,0,0,1,12,17.566V16.71a1.3,1.3,0,0,1,1.312-1.284H15.5V13.284A1.3,1.3,0,0,1,16.811,12h.875A1.3,1.3,0,0,1,19,13.284v2.141h2.187A1.3,1.3,0,0,1,22.5,16.71v.856a1.3,1.3,0,0,1-1.312,1.284H19v2.141A1.3,1.3,0,0,1,17.685,22.276Zm-4.373-5.994a.433.433,0,0,0-.437.428v.856a.433.433,0,0,0,.437.428h2.624a.433.433,0,0,1,.437.428v2.569a.433.433,0,0,0,.437.428h.875a.433.433,0,0,0,.437-.428V18.422a.433.433,0,0,1,.437-.428h2.624a.433.433,0,0,0,.437-.428V16.71a.433.433,0,0,0-.437-.428H18.56a.433.433,0,0,1-.437-.428V13.284a.433.433,0,0,0-.437-.428h-.875a.433.433,0,0,0-.437.428v2.569a.433.433,0,0,1-.437.428Z" transform="translate(-12 -12)" fill="#494849"/>
</svg>
